<mxfile host="app.diagrams.net" modified="2022-10-31T16:06:09.633Z" agent="5.0 (Windows NT 10.0; Win64; x64) AppleWebKit/537.36 (KHTML, like Gecko) Chrome/106.0.0.0 Safari/537.36" etag="Azfljq1YkhbYIcsGghF3" version="20.5.1" type="github">
  <diagram id="GTJL7lLxz4Cc3bti63Eb" name="PÃ¡gina-1">
    <mxGraphModel dx="1422" dy="762" grid="1" gridSize="10" guides="1" tooltips="1" connect="1" arrows="1" fold="1" page="1" pageScale="1" pageWidth="827" pageHeight="1169" math="0" shadow="0">
      <root>
        <mxCell id="0" />
        <mxCell id="1" parent="0" />
        <mxCell id="nvdbvwwqEICPZfHLqrR4-1" value="" style="rounded=0;whiteSpace=wrap;html=1;dashed=1;dashPattern=1 2;" vertex="1" parent="1">
          <mxGeometry x="70" y="20" width="710" height="190" as="geometry" />
        </mxCell>
        <mxCell id="nvdbvwwqEICPZfHLqrR4-41" value="MODELS" style="rounded=0;whiteSpace=wrap;html=1;" vertex="1" parent="1">
          <mxGeometry x="200" y="110" width="560" height="80" as="geometry" />
        </mxCell>
        <mxCell id="nvdbvwwqEICPZfHLqrR4-14" value="" style="rounded=0;whiteSpace=wrap;html=1;dashed=1;dashPattern=1 2;" vertex="1" parent="1">
          <mxGeometry x="70" y="250" width="710" height="400" as="geometry" />
        </mxCell>
        <mxCell id="nvdbvwwqEICPZfHLqrR4-2" value="" style="rounded=0;whiteSpace=wrap;html=1;dashed=1;dashPattern=1 2;" vertex="1" parent="1">
          <mxGeometry x="70" y="700" width="710" height="360" as="geometry" />
        </mxCell>
        <mxCell id="nvdbvwwqEICPZfHLqrR4-3" value="XML" style="rounded=0;whiteSpace=wrap;html=1;" vertex="1" parent="1">
          <mxGeometry x="610" y="30" width="120" height="60" as="geometry" />
        </mxCell>
        <mxCell id="nvdbvwwqEICPZfHLqrR4-4" value="INTERFACE REPOSITORY" style="rounded=0;whiteSpace=wrap;html=1;" vertex="1" parent="1">
          <mxGeometry x="400" y="330" width="120" height="60" as="geometry" />
        </mxCell>
        <mxCell id="nvdbvwwqEICPZfHLqrR4-44" style="edgeStyle=orthogonalEdgeStyle;rounded=0;orthogonalLoop=1;jettySize=auto;html=1;strokeWidth=1;endArrow=classic;endFill=1;" edge="1" parent="1" source="nvdbvwwqEICPZfHLqrR4-5" target="nvdbvwwqEICPZfHLqrR4-12">
          <mxGeometry relative="1" as="geometry" />
        </mxCell>
        <mxCell id="nvdbvwwqEICPZfHLqrR4-5" value="ACTIVITY&lt;br&gt;/FRAGMENT" style="rounded=0;whiteSpace=wrap;html=1;" vertex="1" parent="1">
          <mxGeometry x="110" y="30" width="130" height="60" as="geometry" />
        </mxCell>
        <mxCell id="nvdbvwwqEICPZfHLqrR4-20" style="edgeStyle=orthogonalEdgeStyle;rounded=0;orthogonalLoop=1;jettySize=auto;html=1;exitX=0.5;exitY=0;exitDx=0;exitDy=0;entryX=0.5;entryY=1;entryDx=0;entryDy=0;dashed=1;endArrow=block;endFill=0;" edge="1" parent="1" source="nvdbvwwqEICPZfHLqrR4-10" target="nvdbvwwqEICPZfHLqrR4-12">
          <mxGeometry relative="1" as="geometry" />
        </mxCell>
        <mxCell id="nvdbvwwqEICPZfHLqrR4-24" style="edgeStyle=orthogonalEdgeStyle;rounded=0;orthogonalLoop=1;jettySize=auto;html=1;entryX=0;entryY=0.5;entryDx=0;entryDy=0;" edge="1" parent="1" source="nvdbvwwqEICPZfHLqrR4-10" target="nvdbvwwqEICPZfHLqrR4-4">
          <mxGeometry relative="1" as="geometry" />
        </mxCell>
        <mxCell id="nvdbvwwqEICPZfHLqrR4-10" value="USE CASE" style="rounded=0;whiteSpace=wrap;html=1;" vertex="1" parent="1">
          <mxGeometry x="190" y="430" width="120" height="60" as="geometry" />
        </mxCell>
        <mxCell id="nvdbvwwqEICPZfHLqrR4-12" value="INTERFACE USE CASE" style="rounded=0;whiteSpace=wrap;html=1;" vertex="1" parent="1">
          <mxGeometry x="115" y="320" width="120" height="60" as="geometry" />
        </mxCell>
        <mxCell id="nvdbvwwqEICPZfHLqrR4-15" value="DOMAIN" style="rounded=1;whiteSpace=wrap;html=1;" vertex="1" parent="1">
          <mxGeometry x="365" y="240" width="120" height="20" as="geometry" />
        </mxCell>
        <mxCell id="nvdbvwwqEICPZfHLqrR4-21" value="PRESENTATION" style="rounded=1;whiteSpace=wrap;html=1;" vertex="1" parent="1">
          <mxGeometry x="365" y="10" width="120" height="20" as="geometry" />
        </mxCell>
        <mxCell id="nvdbvwwqEICPZfHLqrR4-27" value="MODELS" style="rounded=0;whiteSpace=wrap;html=1;" vertex="1" parent="1">
          <mxGeometry x="90" y="520" width="590" height="110" as="geometry" />
        </mxCell>
        <mxCell id="nvdbvwwqEICPZfHLqrR4-29" value="DATA" style="rounded=1;whiteSpace=wrap;html=1;" vertex="1" parent="1">
          <mxGeometry x="354" y="690" width="120" height="20" as="geometry" />
        </mxCell>
        <mxCell id="nvdbvwwqEICPZfHLqrR4-30" value="MODELS" style="rounded=0;whiteSpace=wrap;html=1;" vertex="1" parent="1">
          <mxGeometry x="210" y="920" width="550" height="120" as="geometry" />
        </mxCell>
        <mxCell id="nvdbvwwqEICPZfHLqrR4-33" style="edgeStyle=orthogonalEdgeStyle;rounded=0;orthogonalLoop=1;jettySize=auto;html=1;entryX=0.5;entryY=1;entryDx=0;entryDy=0;strokeWidth=1;endArrow=block;endFill=0;dashed=1;" edge="1" parent="1" source="nvdbvwwqEICPZfHLqrR4-31" target="nvdbvwwqEICPZfHLqrR4-4">
          <mxGeometry relative="1" as="geometry">
            <Array as="points">
              <mxPoint x="710" y="460" />
              <mxPoint x="460" y="460" />
            </Array>
          </mxGeometry>
        </mxCell>
        <mxCell id="nvdbvwwqEICPZfHLqrR4-40" style="edgeStyle=orthogonalEdgeStyle;rounded=0;orthogonalLoop=1;jettySize=auto;html=1;entryX=1;entryY=0.5;entryDx=0;entryDy=0;strokeWidth=1;endArrow=classic;endFill=1;" edge="1" parent="1" source="nvdbvwwqEICPZfHLqrR4-31" target="nvdbvwwqEICPZfHLqrR4-39">
          <mxGeometry relative="1" as="geometry" />
        </mxCell>
        <mxCell id="nvdbvwwqEICPZfHLqrR4-31" value="REPOSITORY" style="rounded=0;whiteSpace=wrap;html=1;" vertex="1" parent="1">
          <mxGeometry x="650" y="770" width="120" height="60" as="geometry" />
        </mxCell>
        <mxCell id="nvdbvwwqEICPZfHLqrR4-37" style="edgeStyle=orthogonalEdgeStyle;rounded=0;orthogonalLoop=1;jettySize=auto;html=1;exitX=0.5;exitY=0;exitDx=0;exitDy=0;entryX=0.5;entryY=1;entryDx=0;entryDy=0;dashed=1;endArrow=block;endFill=0;" edge="1" parent="1" source="nvdbvwwqEICPZfHLqrR4-38" target="nvdbvwwqEICPZfHLqrR4-39">
          <mxGeometry relative="1" as="geometry" />
        </mxCell>
        <mxCell id="nvdbvwwqEICPZfHLqrR4-46" style="edgeStyle=orthogonalEdgeStyle;rounded=0;orthogonalLoop=1;jettySize=auto;html=1;strokeWidth=1;endArrow=classic;endFill=1;" edge="1" parent="1" source="nvdbvwwqEICPZfHLqrR4-38" target="nvdbvwwqEICPZfHLqrR4-45">
          <mxGeometry relative="1" as="geometry">
            <Array as="points">
              <mxPoint x="190" y="1120" />
            </Array>
          </mxGeometry>
        </mxCell>
        <mxCell id="nvdbvwwqEICPZfHLqrR4-38" value="DATA SOURCE" style="rounded=0;whiteSpace=wrap;html=1;" vertex="1" parent="1">
          <mxGeometry x="130" y="840" width="120" height="60" as="geometry" />
        </mxCell>
        <mxCell id="nvdbvwwqEICPZfHLqrR4-39" value="INTERFACE DATA SOURCE" style="rounded=0;whiteSpace=wrap;html=1;" vertex="1" parent="1">
          <mxGeometry x="220" y="730" width="120" height="60" as="geometry" />
        </mxCell>
        <mxCell id="nvdbvwwqEICPZfHLqrR4-45" value="DB" style="shape=cylinder3;whiteSpace=wrap;html=1;boundedLbl=1;backgroundOutline=1;size=15;" vertex="1" parent="1">
          <mxGeometry x="384" y="1080" width="60" height="80" as="geometry" />
        </mxCell>
      </root>
    </mxGraphModel>
  </diagram>
</mxfile>
